<svg width="120" height="123" viewBox="0 0 120 123" fill="none" xmlns="http://www.w3.org/2000/svg">
<path d="M106.14 122.6L70.747 85.3761L84.3223 71.0983L119.715 108.323L106.14 122.6ZM16.9309 122.6L3.35564 108.323L47.96 61.4098L36.9705 49.8516L32.4454 54.6108L24.2033 45.9422V59.88L19.6783 64.6393L0.123444 44.0724L4.64852 39.3132H17.9005L9.82004 30.8145L32.7687 6.67819C34.9235 4.41187 37.2399 2.76878 39.7179 1.74894C42.1959 0.729097 44.7278 0.219176 47.3136 0.219176C49.8993 0.219176 52.4312 0.729097 54.9092 1.74894C57.3873 2.76878 59.7037 4.41187 61.8585 6.67819L46.9903 22.3158L55.0708 30.8145L50.5458 35.5738L61.5352 47.132L76.0801 31.8343C75.6492 30.5879 75.3001 29.2847 75.0329 27.9249C74.7657 26.5651 74.63 25.2053 74.6256 23.8456C74.6256 17.1599 76.8085 11.5213 81.1741 6.92975C85.5397 2.33818 90.8987 0.0446684 97.251 0.049201C98.8671 0.049201 100.404 0.219175 101.86 0.559123C103.317 0.899071 104.797 1.40899 106.301 2.08889L90.3018 18.9163L101.938 31.1544L117.937 14.327C118.691 15.9134 119.204 17.4704 119.476 18.9979C119.747 20.5254 119.881 22.1413 119.876 23.8456C119.876 30.5312 117.696 36.1698 113.334 40.7614C108.973 45.3529 103.612 47.6464 97.251 47.6419C95.9582 47.6419 94.6653 47.5286 93.3724 47.302C92.0795 47.0753 90.8405 46.6787 89.6554 46.1121L16.9309 122.6Z" fill="#00A359"/>
</svg>
