<svg width="120" height="144" viewBox="0 0 120 144" fill="none" xmlns="http://www.w3.org/2000/svg">
<path d="M60 98.4766C26.85 98.4766 0 111.902 0 128.477V143.477H120V128.477C120 111.902 93.15 98.4766 60 98.4766ZM30 53.4766C30 61.4331 33.1607 69.0637 38.7868 74.6898C44.4129 80.3159 52.0435 83.4766 60 83.4766C67.9565 83.4766 75.5871 80.3159 81.2132 74.6898C86.8393 69.0637 90 61.4331 90 53.4766M56.25 0.976562C54 0.976562 52.5 2.55156 52.5 4.72656V27.2266H45V8.47656C45 8.47656 28.125 14.9266 28.125 36.6016C28.125 36.6016 22.5 37.6516 22.5 45.9766H97.5C97.125 37.6516 91.875 36.6016 91.875 36.6016C91.875 14.9266 75 8.47656 75 8.47656V27.2266H67.5V4.72656C67.5 2.55156 66.075 0.976562 63.75 0.976562H56.25Z" fill="#00A359"/>
</svg>
