<svg width="20" height="20" viewBox="0 0 20 20" fill="none" xmlns="http://www.w3.org/2000/svg">
<g clip-path="url(#clip0_16_1376)">
<path d="M19.3333 5.94971V14.283C19.3333 14.8356 19.1138 15.3655 18.7231 15.7562C18.3324 16.1469 17.8025 16.3664 17.25 16.3664H4.75001C4.19747 16.3664 3.66757 16.1469 3.27687 15.7562C2.88616 15.3655 2.66667 14.8356 2.66667 14.283V5.94971" stroke="#00EB80" stroke-width="1.4" stroke-linecap="round" stroke-linejoin="round"/>
<path d="M19.3333 5.94954C19.3333 5.39701 19.1138 4.86711 18.7231 4.47641C18.3324 4.0857 17.8025 3.86621 17.25 3.86621H4.75001C4.19747 3.86621 3.66757 4.0857 3.27687 4.47641C2.88616 4.86711 2.66667 5.39701 2.66667 5.94954L9.89584 10.4634C10.2269 10.6704 10.6095 10.7801 11 10.7801C11.3905 10.7801 11.7731 10.6704 12.1042 10.4634L19.3333 5.94954Z" stroke="#00EB80" stroke-width="1.4" stroke-linecap="round" stroke-linejoin="round"/>
</g>
<defs>
<clipPath id="clip0_16_1376">
<rect width="20" height="20" fill="white"/>
</clipPath>
</defs>
</svg>
