<svg width="81" height="72" viewBox="0 0 81 72" fill="none" xmlns="http://www.w3.org/2000/svg">
<path d="M40.762 71.2053C29.0429 71.2053 17.3239 71.2053 5.60476 71.2053C5.03229 71.2053 4.45242 71.2053 3.87749 71.1461C0.943604 70.8722 -0.235873 68.8957 1.01516 66.2234C2.10087 63.9163 3.28528 61.6684 4.43515 59.3859C9.8637 48.639 15.2923 37.8938 20.7208 27.1502C20.8886 26.822 21.0638 26.4938 21.2587 26.1804C22.6257 23.9893 24.8465 23.6808 26.596 25.5709C27.8298 26.8935 28.8735 28.379 29.974 29.8126C35.5671 37.1214 41.1601 44.4335 46.7532 51.7489C49.196 54.932 52.273 55.1047 55.1428 52.2424C56.5665 50.8211 57.9582 49.3628 59.3993 47.9539C61.9976 45.4123 64.9463 45.5653 67.0683 48.5288C71.3273 54.4755 75.4801 60.5012 79.6527 66.5072C79.9788 66.9784 80.2286 67.498 80.393 68.0469C80.7976 69.4263 80.2252 70.5366 78.8261 70.9043C77.9488 71.1143 77.0482 71.2113 76.1463 71.193C64.3582 71.2127 52.5634 71.2169 40.762 71.2053Z" fill="#D4D2E3"/>
<path d="M67.0436 12.3179C67.0406 14.6117 66.3566 16.8531 65.0782 18.7577C63.7999 20.6623 61.9848 22.1444 59.8631 23.0162C57.7414 23.888 55.4085 24.1102 53.1604 23.6545C50.9123 23.1989 48.85 22.086 47.2352 20.4569C45.6203 18.8278 44.5255 16.7559 44.0896 14.5039C43.6537 12.2518 43.8963 9.92107 44.7866 7.80707C45.6769 5.69306 47.1749 3.89103 49.0907 2.62941C51.0064 1.3678 53.2536 0.703435 55.5474 0.720537C58.6018 0.759352 61.5187 1.99685 63.6692 4.16627C65.8197 6.33568 67.0316 9.26326 67.0436 12.3179Z" fill="#D4D2E3"/>
</svg>
