<svg width="18" height="18" viewBox="0 0 18 18" fill="none" xmlns="http://www.w3.org/2000/svg">
<path d="M0 2.73353C0 2.15632 0.202708 1.68013 0.608108 1.30496C1.01351 0.929772 1.54055 0.742188 2.18919 0.742188C2.82626 0.742188 3.34169 0.92688 3.73552 1.2963C4.14092 1.67725 4.34363 2.17363 4.34363 2.78548C4.34363 3.33959 4.14672 3.80134 3.7529 4.17076C3.3475 4.55171 2.81467 4.74219 2.15444 4.74219H2.13707C1.49999 4.74219 0.984562 4.55171 0.590734 4.17076C0.196905 3.78981 0 3.31072 0 2.73353ZM0.225869 17.885V6.31794H4.08301V17.885H0.225869ZM6.22008 17.885H10.0772V11.4262C10.0772 11.0221 10.1236 10.7104 10.2162 10.4911C10.3784 10.0986 10.6245 9.7667 10.9546 9.49543C11.2847 9.22414 11.6988 9.0885 12.1969 9.0885C13.4942 9.0885 14.1429 9.96007 14.1429 11.7032V17.885H18V11.253C18 9.54449 17.5946 8.24868 16.7838 7.36556C15.973 6.48244 14.9015 6.04089 13.5695 6.04089C12.0753 6.04089 10.9112 6.68158 10.0772 7.96296V7.9976H10.0598L10.0772 7.96296V6.31794H6.22008C6.24324 6.68735 6.25483 7.83597 6.25483 9.76383C6.25483 11.6917 6.24324 14.3987 6.22008 17.885Z" fill="#00EB80"/>
</svg>
