<svg width="20" height="25" viewBox="0 0 20 25" fill="none" xmlns="http://www.w3.org/2000/svg">
<path d="M17.8608 13.9561C17.8608 19.3349 12.3516 22.6486 11.2068 23.2798C11.1433 23.3148 11.0721 23.3332 10.9996 23.3332C10.9272 23.3332 10.856 23.3148 10.7925 23.2798C9.64679 22.6486 4.13931 19.3349 4.13931 13.9561C4.13931 9.66809 6.7121 6.6665 11.0001 6.6665C15.288 6.6665 17.8608 9.66809 17.8608 13.9561Z" stroke="#00EB80" stroke-width="1.4" stroke-linecap="round" stroke-linejoin="round"/>
<path d="M7.56972 13.5271C7.56972 14.4369 7.93113 15.3094 8.57445 15.9527C9.21777 16.596 10.0903 16.9574 11.0001 16.9574C11.9099 16.9574 12.7824 16.596 13.4257 15.9527C14.0691 15.3094 14.4305 14.4369 14.4305 13.5271C14.4305 12.6173 14.0691 11.7447 13.4257 11.1014C12.7824 10.4581 11.9099 10.0967 11.0001 10.0967C10.0903 10.0967 9.21777 10.4581 8.57445 11.1014C7.93113 11.7447 7.56972 12.6173 7.56972 13.5271V13.5271Z" stroke="#00EB80" stroke-width="1.4" stroke-linecap="round" stroke-linejoin="round"/>
</svg>
